<svg xmlns="http://www.w3.org/2000/svg" xmlns:xlink="http://www.w3.org/1999/xlink" id="Capa_1" x="0px" y="0px" width="169.001px" height="169.001px" viewBox="0 0 169.001 169.001" style="enable-background:new 0 0 169.001 169.001;" xml:space="preserve"><g>	<g>		<polygon points="9.648,142.086 35.352,156.893 55.119,122.661 29.438,107.814   "></polygon>		<path d="M12.393,167.016c7.112,4.083,16.184,1.675,20.307-5.444L6.976,146.737C2.869,153.84,5.307,162.929,12.393,167.016z"></path>		<path d="M127.466,19.234l12.427,4.022l-11.479,11.201c-5.001-10.736-13.182-20.104-24.186-26.471   C75.677-8.473,39.045,1.327,22.563,29.864C6.1,58.389,15.912,95.021,44.461,111.486c28.526,16.461,65.16,6.688,81.628-21.894   c5.799-10.033,8.277-21.062,7.895-31.876l-10.13,7.56c-0.738,6.64-2.802,13.237-6.355,19.382   c-13.737,23.813-44.261,32.038-68.106,18.271c-23.82-13.768-31.984-44.304-18.25-68.118C44.9,10.996,75.461,2.81,99.265,16.54   c10.281,5.939,17.618,15.009,21.553,25.316L96.757,65.339l-17.173-9.196L60.941,79.539l-20.832-9.14l20.832,17.909L80.586,72.08   L95.302,81l56.29-42.036l2.563,12.793l9.865-36.553L127.466,19.234z"></path>	</g></g><g></g><g></g><g></g><g></g><g></g><g></g><g></g><g></g><g></g><g></g><g></g><g></g><g></g><g></g><g></g></svg>